<svg width="283" height="51" viewBox="0 0 283 51" fill="none" xmlns="http://www.w3.org/2000/svg">
<path d="M32.4734 50C31.3067 50.2333 30.49 49.6733 30.0234 48.32C29.5567 46.92 29.3 44.8667 29.2534 42.16C29.16 38.1933 29.02 34.88 28.8334 32.22C28.6934 29.5133 28.4134 27.0867 27.9934 24.94C23.6534 26.9933 19.36 28.8833 15.1134 30.61C10.9134 32.29 8.81336 33.1067 8.81336 33.06L8.95336 47.97C8.95336 48.67 8.53336 49.1133 7.69336 49.3C6.57336 49.5333 5.82669 48.9033 5.45336 47.41C5.12669 45.87 4.89336 43.4667 4.75336 40.2C4.66003 37.26 4.52003 35.1833 4.33336 33.97C3.02669 34.6233 1.90669 34.9267 0.973359 34.88C0.786693 34.5067 0.693359 33.7367 0.693359 32.57C1.06669 32.43 1.51003 32.2667 2.02336 32.08C2.58336 31.8933 2.98003 31.6833 3.21336 31.45C3.49336 31.17 3.63336 30.7733 3.63336 30.26C3.63336 27.9267 3.40003 24.3333 2.93336 19.48C2.42003 15.0933 2.16336 11.4767 2.16336 8.63L2.23336 5.41C2.37336 5.08333 2.53669 4.87333 2.72336 4.78C2.95669 4.68667 3.26003 4.64 3.63336 4.64C4.42669 4.64 4.82336 4.89667 4.82336 5.41L7.69336 30.05C9.00003 29.7233 11.17 28.8833 14.2034 27.53C17.2367 26.1767 21.9034 23.9833 28.2034 20.95L28.4834 5.41C28.4834 3.59 29.16 2.68 30.5134 2.68C31.0734 2.68 31.4467 2.89 31.6334 3.31C31.8667 3.73 31.9367 4.43 31.8434 5.41L31.7734 17.52C31.7734 21.6267 32.0067 26.97 32.4734 33.55C32.6134 34.8567 32.73 36.1167 32.8234 37.33C32.9634 38.4967 33.08 39.6167 33.1734 40.69C33.4534 43.5833 33.64 45.4267 33.7334 46.22C33.8734 46.9667 34.0834 47.6433 34.3634 48.25C34.13 49.1833 33.5 49.7667 32.4734 50ZM45.3572 50.07C44.2839 50.07 43.4205 48.5067 42.7672 45.38C42.1139 42.2067 41.6939 39.4767 41.5072 37.19C41.3205 34.9033 41.0639 31.2867 40.7372 26.34C40.6905 25.5467 40.6672 24.52 40.6672 23.26C40.6672 21.6733 40.7839 20.5767 41.0172 19.97C41.2972 19.3633 41.7405 19.06 42.3472 19.06C42.8605 19.06 43.2572 19.1767 43.5372 19.41C43.8639 19.5967 44.1439 19.9233 44.3772 20.39L44.3072 23.19C44.3072 26.1767 44.4472 29 44.7272 31.66C45.0539 34.32 45.5439 37.89 46.1972 42.37C46.5705 44.33 46.8272 45.94 46.9672 47.2C47.0605 47.8533 46.9439 48.5067 46.6172 49.16C46.2905 49.7667 45.8705 50.07 45.3572 50.07ZM43.6072 11.57C42.5805 11.57 41.8105 11.1733 41.2972 10.38C40.8305 9.58667 40.5972 8.60667 40.5972 7.44C40.5972 6.92666 40.6205 6.55333 40.6672 6.32C40.6205 5.57333 41.0405 5.2 41.9272 5.2C42.5805 5.2 43.2339 5.36333 43.8872 5.69C44.5872 5.97 44.7972 6.18 44.5172 6.32C44.9839 7.53333 45.2172 8.49 45.2172 9.19C45.2172 9.79666 45.0772 10.2867 44.7972 10.66C44.5172 10.9867 44.1205 11.29 43.6072 11.57ZM98.6753 50.07C97.9753 50.07 97.5553 49.8833 97.4153 49.51C97.2753 49.09 97.2053 48.46 97.2053 47.62C97.252 47.2933 97.2753 46.92 97.2753 46.5C97.2753 46.0333 97.2986 45.6833 97.3453 45.45C97.6253 43.21 97.7653 41.0867 97.7653 39.08C97.7653 34.6467 97.0186 31.1933 95.5253 28.72C94.032 26.2 91.6753 24.94 88.4553 24.94C86.682 24.94 84.9086 25.3833 83.1353 26.27C81.4086 27.1567 79.9853 28.2533 78.8653 29.56C77.792 30.8667 77.2553 32.0567 77.2553 33.13C77.4886 34.4833 77.9086 36.14 78.5153 38.1C78.562 38.3333 78.7486 39.0567 79.0753 40.27C79.4486 41.4833 79.6353 42.58 79.6353 43.56L79.7053 44.89C79.7053 45.6367 79.332 46.01 78.5853 46.01C77.652 46.01 76.882 45.4033 76.2753 44.19C75.7153 42.9767 75.0853 41.0867 74.3853 38.52C73.6853 36 73.0086 33.9233 72.3553 32.29C71.702 30.6567 70.8153 29.2567 69.6953 28.09C68.5753 26.9233 67.152 26.34 65.4253 26.34C63.0453 26.34 61.1786 27.1567 59.8253 28.79C58.5186 30.4233 57.8653 32.43 57.8653 34.81C57.8653 36.3967 58.0053 38.4967 58.2853 41.11C58.5186 43.07 58.6353 44.75 58.6353 46.15C58.6353 46.99 58.542 47.62 58.3553 48.04C58.1686 48.46 57.7253 48.67 57.0253 48.67C56.092 48.67 55.4386 48.3667 55.0653 47.76C54.692 47.1067 54.5053 46.1267 54.5053 44.82C54.5053 42.2533 54.3653 39.15 54.0853 35.51C54.0386 35.0433 53.9453 33.8533 53.8053 31.94C53.6653 29.98 53.642 28.02 53.7353 26.06L53.8053 23.75C54.0853 23.47 54.412 23.33 54.7853 23.33C55.2986 23.33 55.7186 23.6567 56.0453 24.31C56.4186 24.9167 56.6053 25.85 56.6053 27.11C57.3053 25.8967 58.332 24.8 59.6853 23.82C61.0386 22.84 62.462 22.35 63.9553 22.35C66.522 22.35 68.6453 22.8867 70.3253 23.96C72.052 24.9867 73.6153 26.6667 75.0153 29C76.322 26.62 78.282 24.59 80.8953 22.91C83.5553 21.23 86.2853 20.39 89.0853 20.39C91.9786 20.39 94.382 21.4867 96.2953 23.68C98.2553 25.8733 99.6786 28.51 100.565 31.59C101.499 34.67 101.965 37.5167 101.965 40.13C101.965 42.4633 101.755 44.7033 101.335 46.85C100.962 48.9967 100.075 50.07 98.6753 50.07ZM125.581 50C120.728 50 116.504 49.16 112.911 47.48C109.364 45.7533 107.591 42.7433 107.591 38.45C107.591 36.91 108.058 35.4167 108.991 33.97C109.924 32.5233 111.301 31.3567 113.121 30.47C114.941 29.5367 117.158 29.07 119.771 29.07C121.778 29.07 123.481 29.1633 124.881 29.35C126.281 29.5367 127.891 30.05 129.711 30.89C131.531 31.73 133.421 33.06 135.381 34.88C134.634 31.66 133.514 28.8367 132.021 26.41C130.528 23.9833 128.848 22.1167 126.981 20.81C125.161 19.4567 123.364 18.78 121.591 18.78C120.751 18.78 119.958 18.9433 119.211 19.27C118.511 19.55 117.648 19.97 116.621 20.53C115.454 21.2767 114.591 21.65 114.031 21.65C113.798 21.65 113.588 21.58 113.401 21.44C113.261 21.2533 113.191 21.0433 113.191 20.81C113.191 18.9433 114.008 17.4967 115.641 16.47C117.321 15.4433 119.351 14.9767 121.731 15.07C124.998 15.2567 127.984 16.6567 130.691 19.27C133.398 21.8367 135.521 25.0333 137.061 28.86C138.648 32.6867 139.441 36.4433 139.441 40.13C139.441 40.7367 139.394 41.6 139.301 42.72L137.061 42.58C135.288 38.9867 133.001 36.4433 130.201 34.95C127.448 33.41 124.671 32.64 121.871 32.64C118.278 32.64 115.711 33.1767 114.171 34.25C112.631 35.3233 111.861 36.8867 111.861 38.94C111.861 41.0867 112.934 42.8133 115.081 44.12C117.228 45.4267 119.981 46.08 123.341 46.08C125.208 46.08 126.701 45.9867 127.821 45.8C128.941 45.5667 130.108 45.2633 131.321 44.89C132.301 44.5633 133.164 44.33 133.911 44.19C134.658 44.05 135.614 43.98 136.781 43.98C138.088 43.98 138.904 44.0733 139.231 44.26C139.604 44.4467 139.791 44.8667 139.791 45.52C139.791 45.9867 138.834 46.57 136.921 47.27C135.008 47.97 132.861 48.6 130.481 49.16C128.101 49.72 126.468 50 125.581 50ZM152.044 50.28C151.39 50.4667 151.017 50.56 150.924 50.56C150.55 50.56 150.154 50.3733 149.734 50C148.194 47.7133 147.074 43.7233 146.374 38.03C145.72 32.3367 145.394 27.4367 145.394 23.33C145.394 22.6767 145.86 22.35 146.794 22.35C148.194 22.35 148.894 23.12 148.894 24.66C148.894 25.08 148.87 25.43 148.824 25.71C149.244 24.73 150.037 23.7267 151.204 22.7C152.37 21.6733 153.724 20.81 155.264 20.11C156.804 19.41 158.367 19.06 159.954 19.06C164.947 19.06 168.587 21.2767 170.874 25.71C173.16 30.0967 174.304 35.5567 174.304 42.09C174.304 44.33 174.07 46.1267 173.604 47.48C173.137 48.7867 172.507 49.44 171.714 49.44C170.874 49.44 170.454 49.1833 170.454 48.67C170.78 46.1967 170.944 43.77 170.944 41.39C170.944 35.37 169.894 30.82 167.794 27.74C165.694 24.6133 162.917 23.05 159.464 23.05C157.784 23.05 156.15 23.47 154.564 24.31C153.024 25.15 151.764 26.3167 150.784 27.81C149.85 29.3033 149.384 31.0067 149.384 32.92C149.384 35.0667 149.5 36.9333 149.734 38.52C149.967 40.1067 150.34 42.02 150.854 44.26C151.414 46.4533 151.81 48.46 152.044 50.28ZM180.265 41.74C180.919 41.2267 181.549 40.97 182.155 40.97C182.715 40.97 183.252 41.1333 183.765 41.46C184.325 41.7867 184.885 42.2067 185.445 42.72C186.005 43.1867 186.449 43.5367 186.775 43.77C187.849 44.61 189.319 45.2633 191.185 45.73C193.052 46.1967 195.035 46.43 197.135 46.43C199.515 46.43 201.639 45.9867 203.505 45.1C205.419 44.1667 206.375 42.93 206.375 41.39C206.375 39.99 205.862 38.8933 204.835 38.1C203.809 37.26 202.572 36.6533 201.125 36.28C199.679 35.9067 197.765 35.5567 195.385 35.23C192.165 34.8567 189.599 34.39 187.685 33.83C185.819 33.27 184.325 32.36 183.205 31.1C182.085 29.7933 181.525 27.9733 181.525 25.64C181.525 23.12 182.715 21.2533 185.095 20.04C187.475 18.78 190.205 18.15 193.285 18.15C196.085 18.15 198.465 18.7567 200.425 19.97C202.432 21.1367 203.459 22.8167 203.505 25.01C203.599 26.27 203.412 27.2733 202.945 28.02C202.479 28.72 201.919 29.07 201.265 29.07C200.892 29.07 200.565 28.93 200.285 28.65C200.052 28.37 199.935 27.9967 199.935 27.53C199.935 26.7833 200.192 25.9667 200.705 25.08C200.472 23.96 199.702 23.12 198.395 22.56C197.135 22 195.619 21.72 193.845 21.72C191.232 21.72 189.155 22.21 187.615 23.19C186.075 24.1233 185.305 25.2433 185.305 26.55C185.305 27.95 185.865 29.0233 186.985 29.77C188.105 30.5167 189.459 31.0533 191.045 31.38C192.679 31.66 194.989 31.94 197.975 32.22C200.449 32.5467 202.455 32.9433 203.995 33.41C205.582 33.8767 206.912 34.7867 207.985 36.14C209.059 37.4467 209.595 39.3367 209.595 41.81C209.595 44.3767 208.405 46.4067 206.025 47.9C203.645 49.3467 200.799 50.07 197.485 50.07C193.239 50.07 189.435 49.3467 186.075 47.9C182.762 46.4533 180.825 44.4 180.265 41.74ZM223.23 49.86C222.997 49.9067 222.74 49.02 222.46 47.2C222.227 45.38 221.9 42.2533 221.48 37.82C220.827 30.54 220.08 23.8667 219.24 17.8C218.447 11.7333 217.444 6.48333 216.23 2.05C216.137 1.67666 216.277 1.35 216.65 1.07C217.024 0.789997 217.537 0.649997 218.19 0.649997C218.517 0.649997 218.774 0.67333 218.96 0.719996C220.127 3.89333 220.944 6.69333 221.41 9.12C221.924 11.5467 222.39 14.5333 222.81 18.08L223.16 20.81C225.96 19.13 228.527 18.29 230.86 18.29C235.107 18.29 238.117 20.2267 239.89 24.1C241.71 27.9267 242.62 33.3867 242.62 40.48C242.62 43.1867 242.457 45.4733 242.13 47.34C241.804 49.16 241.407 50.07 240.94 50.07C240.334 50.07 239.657 49.6267 238.91 48.74V46.43L238.98 38.8C238.98 37.3533 238.934 35.5567 238.84 33.41C238.7 29.77 237.954 27.0167 236.6 25.15C235.294 23.2833 233.03 22.35 229.81 22.35C227.664 22.35 225.657 23.1433 223.79 24.73C223.79 26.5033 223.86 28.3233 224 30.19C224.187 32.0567 224.397 33.8767 224.63 35.65C224.957 38.1233 225.19 40.3167 225.33 42.23C225.517 44.0967 225.61 46.1733 225.61 48.46C225.33 49.02 225.004 49.3933 224.63 49.58C224.304 49.7667 223.837 49.86 223.23 49.86ZM280.953 49.65C280.113 49.65 279.436 49.3 278.923 48.6C278.456 47.8533 278.036 46.7333 277.663 45.24C277.29 43.7 276.706 41.04 275.913 37.26C275.12 40.3867 273.626 42.8833 271.433 44.75C269.24 46.57 266.556 47.48 263.383 47.48C260.49 47.48 258.04 46.4767 256.033 44.47C254.073 42.4167 252.603 39.7333 251.623 36.42C250.643 33.06 250.153 29.4433 250.153 25.57C250.153 23.7967 250.316 22.28 250.643 21.02C251.016 19.7133 251.46 18.7333 251.973 18.08C252.533 17.4267 253.07 17.1233 253.583 17.17C254.143 17.17 254.423 17.5433 254.423 18.29C254.423 18.8967 254.26 19.8533 253.933 21.16C253.606 22.6067 253.443 24.2633 253.443 26.13C253.443 28.93 253.84 31.66 254.633 34.32C255.473 36.98 256.686 39.1733 258.273 40.9C259.906 42.58 261.82 43.42 264.013 43.42C265.833 43.42 267.49 42.8833 268.983 41.81C270.476 40.7367 271.643 39.3833 272.483 37.75C273.37 36.1167 273.813 34.5067 273.813 32.92V21.79C274.326 20.81 275.026 20.32 275.913 20.32C276.706 20.32 277.243 20.9967 277.523 22.35C277.803 23.7033 277.943 25.6167 277.943 28.09C277.943 30.19 277.92 31.8 277.873 32.92C278.153 34.46 278.573 36.0233 279.133 37.61C279.74 39.1967 280.486 40.9933 281.373 43C282.446 45.4733 282.983 46.99 282.983 47.55C282.983 48.95 282.306 49.65 280.953 49.65Z" fill="white"/>
</svg>
