<svg width="428" height="226" viewBox="0 0 428 226" fill="none" xmlns="http://www.w3.org/2000/svg">
<path d="M251.723 66.1914C251.43 67.5586 250.795 68.6328 249.818 69.4141C248.842 70.1953 247.768 70.5859 246.596 70.5859C244.838 70.5859 243.422 70.0488 242.348 68.9746C241.273 67.8027 240.736 66.4844 240.736 65.0195C240.736 63.5547 240.883 62.1387 241.176 60.7715C241.469 59.3066 241.615 57.8906 241.615 56.5234C241.615 49.3945 239.418 42.998 235.023 37.334C230.629 31.6699 224.379 26.9336 216.273 23.125C208.266 19.2187 198.5 16.2402 186.977 14.1895C175.453 12.1387 162.611 11.1133 148.451 11.1133C137.611 11.1133 126.674 11.8457 115.639 13.3105C104.701 14.6777 94.1543 16.7285 83.998 19.4629C73.9395 22.0996 64.5156 25.4688 55.7266 29.5703C46.9375 33.5742 39.2715 38.2617 32.7285 43.6328C26.2832 48.9062 21.2051 54.8145 17.4941 61.3574C13.7832 67.8027 11.9277 74.8828 11.9277 82.5977C11.9277 88.5547 13.1973 93.8281 15.7363 98.418C18.373 102.91 21.9375 106.865 26.4297 110.283C30.9219 113.604 36.1953 116.484 42.25 118.926C48.4023 121.27 55.043 123.271 62.1719 124.932C69.3008 126.494 76.7227 127.812 84.4375 128.887C92.1523 129.863 99.916 130.693 107.729 131.377L130.287 133.281C141.518 134.258 151.576 135.283 160.463 136.357C169.35 137.432 177.162 138.799 183.9 140.459C195.131 143.291 203.432 147.344 208.803 152.617C214.174 157.891 216.859 164.922 216.859 173.711C216.859 182.207 214.516 189.678 209.828 196.123C205.141 202.568 198.744 207.988 190.639 212.383C182.533 216.777 173.061 220.098 162.221 222.344C151.381 224.59 139.76 225.713 127.357 225.713C113.881 225.713 102.016 224.785 91.7617 222.93C81.6055 221.172 73.0605 219.219 66.127 217.07C59.291 214.824 54.0664 212.773 50.4531 210.918C46.8398 209.062 44.8867 208.037 44.5938 207.842C42.8359 206.865 41.957 205.303 41.957 203.154C41.957 201.494 42.543 200.176 43.7148 199.199C44.8867 198.125 46.1562 197.588 47.5234 197.588C48.5977 197.588 49.5742 197.881 50.4531 198.467C50.5508 198.467 52.2109 199.346 55.4336 201.104C58.7539 202.764 63.6367 204.619 70.082 206.67C76.625 208.721 84.6816 210.576 94.252 212.236C103.822 213.896 114.955 214.727 127.65 214.727C140.248 214.727 151.381 213.701 161.049 211.65C170.717 209.6 178.822 206.768 185.365 203.154C192.006 199.443 196.986 195.146 200.307 190.264C203.725 185.283 205.434 179.912 205.434 174.15C205.434 170.732 204.799 167.803 203.529 165.361C202.357 162.822 200.697 160.674 198.549 158.916C196.4 157.061 193.812 155.498 190.785 154.229C187.855 152.959 184.633 151.885 181.117 151.006C177.406 150.029 173.402 149.199 169.105 148.516C164.906 147.832 160.561 147.246 156.068 146.758C151.576 146.27 147.035 145.83 142.445 145.439C137.953 145.049 133.51 144.658 129.115 144.268L106.557 142.363C88.7832 140.898 73.2559 138.652 59.9746 135.625C46.791 132.5 35.8047 128.545 27.0156 123.76C18.2266 118.877 11.6348 113.066 7.24023 106.328C2.8457 99.5898 0.648438 91.7285 0.648438 82.7441C0.648438 73.5645 2.69922 65.166 6.80078 57.5488C11 49.834 16.6641 42.9004 23.793 36.748C31.0195 30.5957 39.418 25.2734 48.9883 20.7812C58.6562 16.1914 68.959 12.3828 79.8965 9.35547C90.834 6.32812 102.162 4.08203 113.881 2.61719C125.6 1.05469 137.123 0.273438 148.451 0.273438C162.611 0.273438 174.916 1.15234 185.365 2.91016C195.912 4.57031 204.896 6.76758 212.318 9.50195C219.838 12.1387 225.99 15.166 230.775 18.584C235.561 22.002 239.418 25.3711 242.348 28.6914C249.281 36.7969 252.748 46.0254 252.748 56.377C252.748 59.7949 252.406 63.0664 251.723 66.1914ZM297.487 214C287.887 219.2 273.887 221.8 255.487 221.8C249.687 221.8 244.087 221.4 238.687 220.6C238.687 210 244.187 182.2 255.187 137.2C266.387 92.2 271.987 61.9 271.987 46.3C271.987 42.3 270.987 38.1 268.987 33.7C266.987 29.1 264.987 25.6 262.987 23.2L259.687 19.3L260.887 13.3C275.087 9.09999 297.387 6.99999 327.787 6.99999C330.587 12.6 331.987 19.7 331.987 28.3C331.987 36.9 327.787 60.7 319.387 99.7H321.187C335.587 99.7 346.387 93.2 353.587 80.2C360.987 67 366.687 45.3 370.687 15.1C388.487 9.69999 406.087 6.99999 423.487 6.99999C423.887 8.59999 423.987 13 423.787 20.2C423.587 27.2 421.687 36.6 418.087 48.4C414.687 60.2 408.487 72.4 399.487 85C390.487 97.4 379.487 106.9 366.487 113.5C381.687 165.9 393.487 192.1 401.887 192.1C405.087 192.1 410.187 190.9 417.187 188.5L420.487 187.3L427.687 203.8C409.087 217 390.287 223.6 371.287 223.6C352.287 223.6 339.787 213.8 333.787 194.2C327.787 174.2 323.287 150.7 320.287 123.7H313.987C302.987 172.5 297.487 202.6 297.487 214Z" fill="black"/>
</svg>
